<?xml version="1.0" ?><svg width="16px" height="16px" style="fill:#fff" viewBox="0 0 64 64" xmlns="http://www.w3.org/2000/svg"><title/><g id="Camera"><path style="fill:#fff" d="M53.25,61H10.75A7.76,7.76,0,0,1,3,53.25V26.75A7.76,7.76,0,0,1,10.75,19h42.5A7.76,7.76,0,0,1,61,26.75v26.5A7.76,7.76,0,0,1,53.25,61ZM10.75,21A5.76,5.76,0,0,0,5,26.75v26.5A5.76,5.76,0,0,0,10.75,59h42.5A5.76,5.76,0,0,0,59,53.25V26.75A5.76,5.76,0,0,0,53.25,21Z"/><path style="fill:#fff" d="M42,21H22a1,1,0,0,1-1-1V17.31A6.32,6.32,0,0,1,27.31,11h9.38A6.32,6.32,0,0,1,43,17.31V20A1,1,0,0,1,42,21ZM23,19H41V17.31A4.31,4.31,0,0,0,36.69,13H27.31A4.31,4.31,0,0,0,23,17.31Z"/><path d="M32,53A11,11,0,1,1,43,42,11,11,0,0,1,32,53Zm0-20a9,9,0,1,0,9,9A9,9,0,0,0,32,33Z"/><path d="M32,57A15,15,0,1,1,47,42,15,15,0,0,1,32,57Zm0-28A13,13,0,1,0,45,42,13,13,0,0,0,32,29Z"/><path d="M16,34H8a1,1,0,0,1-1-1V25a1,1,0,0,1,1-1h8a1,1,0,0,1,1,1v8A1,1,0,0,1,16,34ZM9,32h6V26H9Z"/><path d="M56,29H48a1,1,0,0,1-1-1V24a1,1,0,0,1,1-1h8a1,1,0,0,1,1,1v4A1,1,0,0,1,56,29Zm-7-2h6V25H49Z"/><path d="M38,21H26a1,1,0,0,1-1-1V16a1,1,0,0,1,1-1H38a1,1,0,0,1,1,1v4A1,1,0,0,1,38,21ZM27,19H37V17H27Z"/></g></svg>