<?xml version="1.0" encoding="iso-8859-1"?>
<!-- Generator: Adobe Illustrator 19.0.0, SVG Export Plug-In . SVG Version: 6.00 Build 0)  -->
<svg version="1.1" id="Layer_1" xmlns="http://www.w3.org/2000/svg" xmlns:xlink="http://www.w3.org/1999/xlink" x="0px" y="0px"
	 viewBox="0 0 511.999 511.999" style="fill:#fff" xml:space="preserve">
<g>
	<g>
		<path d="M509.606,79.425l-77.028-77.03c-1.532-1.533-3.61-2.393-5.777-2.393s-4.245,0.861-5.777,2.393l-17.332,17.332
			L386.361,2.395c-1.532-1.533-3.61-2.393-5.777-2.393s-4.245,0.861-5.777,2.393L248.095,129.107c-3.191,3.191-3.191,8.364,0,11.554
			c1.595,1.595,3.686,2.393,5.777,2.393c2.091,0,4.182-0.797,5.777-2.393L380.583,19.727l11.555,11.555L117.036,306.384
			c-3.191,3.191-3.191,8.364,0,11.554l1.923,1.923l-63.051,63.051c-1.533,1.532-2.393,3.61-2.393,5.777s0.861,4.245,2.393,5.777
			l5.777,5.777L16.896,445.03c-3.191,3.191-3.191,8.364,0,11.554l13.48,13.481L2.393,498.049c-3.191,3.191-3.191,8.364,0,11.554
			c1.595,1.596,3.686,2.394,5.777,2.394c2.091,0,4.182-0.797,5.777-2.393l27.983-27.983l13.48,13.48
			c1.532,1.533,3.61,2.393,5.777,2.393s4.245-0.861,5.777-2.393l44.789-44.789l5.777,5.777c1.595,1.595,3.686,2.393,5.777,2.393
			c2.09,0,4.182-0.797,5.777-2.393l63.05-63.05l1.929,1.929c1.532,1.533,3.61,2.393,5.777,2.393c2.167,0,4.245-0.861,5.777-2.393
			L509.606,90.98C512.797,87.789,512.797,82.615,509.606,79.425z M61.188,477.769L47.71,464.291
			c-0.005-0.005-13.483-13.483-13.483-13.483l39.011-39.011l26.96,26.961L61.188,477.769z M169.525,392.54l-32.737-32.737
			c-3.191-3.191-8.364-3.191-11.554,0c-3.191,3.191-3.191,8.364,0,11.554l32.737,32.737l-34.663,34.663L79.021,394.47
			c-0.01-0.01-5.782-5.782-5.782-5.782l11.555-11.555l32.737,32.737c1.595,1.595,3.686,2.393,5.777,2.393
			c2.09,0,4.182-0.797,5.777-2.393c3.191-3.191,3.191-8.364,0-11.554l-32.737-32.737l34.164-34.164l50.069,50.069L169.525,392.54z
			 M200.004,377.474c-0.39-0.818-0.915-1.588-1.592-2.266c-0.834-0.834-1.806-1.444-2.841-1.843l-56.94-56.941
			c-0.398-1.035-1.009-2.006-1.843-2.84c-0.675-0.675-1.442-1.198-2.257-1.588l140.276-140.277l65.475,65.475L200.004,377.474z
			 M351.836,225.642l-65.475-65.475l117.33-117.331l65.475,65.475L351.836,225.642z M480.721,96.756l-65.475-65.475l11.555-11.555
			l65.475,65.475L480.721,96.756z"/>
	</g>
</g>
<g>
</g>
<g>
</g>
<g>
</g>
<g>
</g>
<g>
</g>
<g>
</g>
<g>
</g>
<g>
</g>
<g>
</g>
<g>
</g>
<g>
</g>
<g>
</g>
<g>
</g>
<g>
</g>
<g>
</g>
</svg>
